<?xml version="1.0" standalone="no"?>
<!DOCTYPE svg PUBLIC "-//W3C//DTD SVG 20010904//EN"
 "http://www.w3.org/TR/2001/REC-SVG-20010904/DTD/svg10.dtd">
<svg version="1.0" xmlns="http://www.w3.org/2000/svg"
 width="1080.000000pt" height="906.000000pt" viewBox="0 0 1080.000000 906.000000"
 preserveAspectRatio="xMidYMid meet">
<metadata>
Created by potrace 1.16, written by Peter Selinger 2001-2019
</metadata>
<g transform="translate(0.000000,906.000000) scale(0.100000,-0.100000)"
fill="#000000" stroke="none">
<path d="M0 4530 l0 -4530 5400 0 5400 0 0 4530 0 4530 -5400 0 -5400 0 0
-4530z m6897 3165 c49 -74 110 -170 138 -213 27 -42 81 -126 120 -187 40 -60
105 -162 145 -225 86 -135 141 -220 225 -350 34 -52 88 -137 121 -188 32 -51
97 -152 145 -225 47 -72 104 -161 127 -197 23 -36 91 -141 151 -235 60 -93
165 -257 233 -363 67 -106 162 -253 211 -327 l87 -135 0 -455 0 -455 -1062 -2
-1063 -3 -3 -495 -2 -495 -515 3 -515 2 0 495 0 496 -132 -3 -133 -3 -17 -63
c-58 -216 -158 -399 -298 -546 -242 -254 -546 -376 -1014 -406 -472 -31 -887
84 -1191 331 -166 134 -312 336 -385 532 -32 87 -78 278 -82 342 l-3 60 460
77 c253 42 463 77 466 78 3 0 9 -39 13 -87 19 -231 90 -356 243 -429 126 -59
395 -72 532 -25 209 72 293 221 311 556 5 88 9 859 10 1713 l0 1552 503 -2
502 -3 3 -1412 2 -1413 105 0 105 0 0 1420 0 1420 685 0 685 0 87 -135z m1103
125 c0 -5 9 -10 20 -10 11 0 20 -4 20 -10 0 -5 7 -10 15 -10 20 0 65 -44 65
-63 0 -7 7 -22 15 -33 16 -21 21 -159 6 -168 -5 -3 -12 -18 -16 -33 -10 -43
-64 -92 -107 -97 -3 -1 -10 -4 -14 -8 -14 -14 -148 -8 -168 7 -11 8 -26 15
-33 15 -19 0 -63 45 -63 65 0 8 -3 15 -7 15 -16 0 -33 57 -33 111 0 133 95
226 233 228 38 1 67 -3 67 -9z m-4987 -6344 c212 -75 347 -262 347 -481 0
-197 -108 -372 -286 -463 -62 -32 -196 -56 -266 -48 -211 24 -377 154 -440
344 -92 280 67 580 349 657 82 23 217 18 296 -9z m6739 13 c147 -31 246 -129
256 -254 l4 -52 -93 13 c-52 7 -99 13 -106 14 -6 0 -15 12 -21 28 -27 75 -123
109 -241 86 -62 -13 -103 -81 -79 -131 20 -41 62 -60 224 -102 206 -53 279
-93 324 -181 42 -82 33 -208 -19 -285 -98 -145 -358 -196 -576 -114 -82 30
-164 113 -188 188 -23 72 -23 121 1 121 20 0 184 -28 187 -32 2 -2 10 -19 18
-39 40 -96 188 -135 319 -82 44 18 68 51 68 95 0 70 -45 97 -239 147 -253 65
-341 141 -341 293 0 136 82 236 235 284 50 16 197 18 267 3z m-7462 -94 l0
-95 -255 0 -256 0 3 -107 3 -108 223 -3 222 -2 0 -95 0 -95 -222 -2 -223 -3
-5 -195 -5 -195 -100 0 -100 0 -3 498 -2 497 360 0 360 0 0 -95z m4661 91 c2
-2 3 -45 1 -95 l-3 -91 -250 0 -249 0 0 -110 0 -110 225 0 225 0 0 -95 0 -95
-225 0 -225 0 0 -105 0 -105 275 0 276 0 -3 -92 -3 -93 -380 0 -380 0 -3 475
c-1 261 0 485 3 498 l5 22 354 0 c194 0 355 -2 357 -4z m-5543 -398 l-3 -393
-29 -63 c-53 -114 -130 -155 -296 -156 -99 0 -109 2 -166 31 -67 35 -107 76
-135 138 -22 47 -25 105 -6 105 6 1 48 7 92 15 44 8 83 15 88 15 4 0 7 -14 7
-31 0 -49 47 -89 104 -89 60 0 92 16 111 55 13 28 15 89 15 399 l0 366 111 0
110 0 -3 -392z m2292 49 c0 -336 0 -344 23 -387 59 -117 286 -124 352 -10 19
33 20 55 23 388 l3 352 110 0 110 0 -3 -362 c-3 -355 -4 -364 -27 -422 -62
-156 -229 -240 -440 -222 -151 12 -250 61 -313 151 -52 76 -58 125 -58 507 l0
348 110 0 110 0 0 -343z m1387 322 c78 -26 135 -75 170 -147 24 -50 28 -69 28
-147 0 -71 -5 -100 -21 -136 -31 -66 -86 -123 -145 -148 -36 -16 -48 -26 -41
-34 93 -121 252 -339 252 -347 0 -6 -46 -10 -125 -10 -110 0 -127 2 -141 19
-9 10 -66 90 -128 177 l-112 159 -52 3 -52 3 0 -181 0 -181 -107 3 -108 3 -3
493 -2 492 263 0 c239 0 269 -2 324 -21z m983 -381 l-5 -403 -27 -51 c-55
-105 -143 -148 -298 -149 -82 0 -103 4 -151 26 -72 34 -133 96 -153 156 -29
86 -28 88 77 106 51 10 96 17 99 17 3 0 9 -16 13 -36 10 -58 44 -84 109 -84
44 0 61 5 83 24 l28 24 3 386 3 386 112 0 112 0 -5 -402z m1682 340 c25 -60
173 -392 334 -748 41 -91 74 -168 74 -172 0 -14 -198 -9 -210 5 -6 6 -31 55
-54 107 l-42 95 -247 3 -248 2 -52 -107 -52 -108 -89 -3 c-49 -2 -93 1 -98 6
-6 6 5 40 26 86 20 43 36 79 36 81 0 2 18 41 39 87 22 45 85 184 141 308 56
124 110 243 120 265 10 22 30 66 44 98 l25 57 114 0 114 0 25 -62z m805 -26
c190 -265 247 -345 300 -419 32 -45 61 -83 66 -83 4 0 7 133 7 295 l0 295 93
0 92 0 -5 -492 -5 -493 -87 -3 -86 -3 -69 93 c-73 98 -286 387 -368 501 -27
37 -52 67 -57 67 -4 0 -9 -147 -10 -327 l-3 -328 -92 -3 -93 -3 0 496 0 495
128 0 127 0 62 -88z"/>
<path d="M6470 5882 l0 -892 545 0 c300 0 545 4 545 8 0 4 -27 52 -60 105 -33
54 -60 102 -60 107 0 4 -3 10 -7 12 -5 2 -42 59 -84 128 -84 139 -350 571
-409 665 -20 33 -60 97 -88 142 -29 45 -52 85 -52 88 0 3 -8 18 -19 33 -10 15
-44 70 -76 122 -32 52 -68 111 -80 130 -12 19 -48 78 -81 130 -32 52 -61 99
-66 105 -4 5 -8 -392 -8 -883z"/>
<path d="M8095 4950 c-67 -10 -123 -34 -164 -73 -44 -42 -61 -84 -61 -154 0
-111 61 -163 249 -212 61 -16 126 -38 144 -48 42 -25 56 -65 36 -101 -21 -39
-64 -56 -139 -57 -79 0 -123 23 -148 76 -15 32 -22 37 -62 42 -25 3 -60 9 -79
13 l-34 7 7 -42 c15 -96 74 -164 173 -201 50 -19 73 -21 163 -18 91 4 112 8
160 32 94 49 124 98 125 203 0 64 -3 75 -30 110 -40 50 -114 86 -253 122 -63
16 -123 37 -133 47 -25 22 -25 78 0 103 23 23 87 35 140 26 40 -7 91 -46 91
-70 0 -15 21 -21 104 -31 l59 -7 -6 48 c-18 126 -170 208 -342 185z"/>
<path d="M4380 4565 l0 -375 288 2 287 3 3 67 3 68 -213 2 -213 3 -3 78 -3 77
173 0 173 0 -3 75 -4 75 -169 0 -170 0 3 81 3 80 190 2 190 2 3 68 3 67 -271
0 -270 0 0 -375z"/>
<path d="M5726 4908 c-13 -32 -138 -308 -189 -418 -93 -203 -126 -283 -121
-291 6 -10 87 -12 120 -3 15 4 33 30 58 85 l35 79 189 0 189 0 38 -85 38 -85
73 0 c41 0 74 4 74 8 0 11 -55 137 -170 392 -56 124 -113 253 -127 288 l-25
62 -84 0 -84 0 -14 -32z m120 -155 c59 -140 96 -235 91 -239 -2 -3 -56 -3
-120 -2 l-116 3 50 115 c28 63 55 125 59 138 13 30 17 28 36 -15z"/>
<path d="M6700 4565 l0 -376 68 3 67 3 3 248 c1 136 6 247 10 247 9 0 31 -28
207 -270 82 -113 156 -210 165 -217 8 -7 43 -13 78 -13 l62 0 0 375 0 375 -70
0 -70 0 -2 -227 -3 -228 -86 120 c-47 66 -120 168 -163 228 l-77 107 -95 0
-94 0 0 -375z"/>
<path d="M7900 7780 c0 -5 -11 -10 -25 -10 -31 0 -115 -80 -115 -109 0 -11 -4
-23 -10 -26 -5 -3 -10 -17 -10 -30 0 -13 5 -27 10 -30 6 -3 10 -18 10 -32 0
-29 73 -103 102 -103 9 0 20 -4 23 -10 3 -5 24 -10 45 -10 21 0 42 5 45 10 3
6 14 10 24 10 24 0 91 66 91 89 0 11 5 23 10 26 6 3 10 24 10 45 0 21 -4 42
-10 45 -5 3 -10 15 -10 25 0 28 -74 100 -104 100 -13 0 -28 5 -31 10 -3 6 -17
10 -31 10 -13 0 -24 -4 -24 -10z m80 -63 c9 -7 24 -23 33 -37 16 -23 16 -25
-4 -46 -16 -17 -19 -29 -14 -53 4 -17 10 -31 15 -31 4 0 10 -8 14 -17 3 -10 9
-24 12 -30 4 -9 -6 -13 -35 -13 -34 0 -41 3 -41 19 0 27 -44 76 -59 67 -7 -5
-11 -23 -9 -45 3 -34 1 -36 -29 -39 l-33 -3 0 120 0 121 68 0 c37 0 74 -6 82
-13z"/>
<path d="M2765 1277 c-170 -56 -256 -243 -185 -405 29 -67 103 -135 172 -158
36 -12 71 -15 124 -12 64 4 81 10 128 41 98 65 142 153 134 271 -5 81 -28 132
-83 188 -73 74 -195 106 -290 75z"/>
<path d="M4720 1166 l0 -146 118 1 c64 0 133 5 152 12 96 33 110 194 23 253
-23 16 -51 19 -160 22 l-133 4 0 -146z"/>
<path d="M7603 1263 c-3 -10 -37 -89 -75 -177 -38 -87 -67 -160 -65 -163 2 -2
72 -2 155 -1 l150 3 -69 163 c-38 90 -69 167 -69 172 0 18 -20 20 -27 3z"/>
</g>
</svg>
